<?xml version="1.0" encoding="UTF-8" standalone="no"?>
<svg
   xmlns:dc="http://purl.org/dc/elements/1.1/"
   xmlns:cc="http://creativecommons.org/ns#"
   xmlns:rdf="http://www.w3.org/1999/02/22-rdf-syntax-ns#"
   xmlns:svg="http://www.w3.org/2000/svg"
   xmlns="http://www.w3.org/2000/svg"
   viewBox="0 0 420.33331 224.33331"
   height="224.33331"
   width="420.33331"
   id="svg869"
   version="1.1">
  <metadata
     id="metadata875">
    <rdf:RDF>
      <cc:Work
         rdf:about="">
        <dc:format>image/svg+xml</dc:format>
        <dc:type
           rdf:resource="http://purl.org/dc/dcmitype/StillImage" />
        <dc:title></dc:title>
      </cc:Work>
    </rdf:RDF>
  </metadata>
  <defs
     id="defs873" />
  <g
     transform="translate(-131.77652,-708.66437)"
     id="g6058">
    <path
       id="path6064"
       d="m 334.43503,925.91634 c -1.74387,-2.77705 -4.77289,-7.59917 -6.73116,-10.71584 l -3.56048,-5.66666 h -70.53114 c -64.85531,0 -71.16831,-0.19831 -78.44887,-2.46427 -15.96537,-4.96899 -27.33797,-16.23452 -32.31372,-32.00952 -2.49488,-7.90966 -2.67281,-12.13862 -2.67281,-63.52621 0,-51.38758 0.17793,-55.61654 2.67281,-63.52621 3.40747,-10.80295 10.11942,-19.88429 18.99978,-25.70692 14.20937,-9.31672 4.05973,-8.84798 183.07435,-8.45457 l 161.25305,0.35437 7.64771,3.58423 c 9.77114,4.5794 20.18866,14.99692 24.76806,24.76805 l 3.58422,7.64772 v 61.33333 61.33333 l -3.58422,7.64772 c -4.5794,9.77113 -14.99692,20.18865 -24.76806,24.76805 l -7.64771,3.58423 -76.93103,0.37464 -76.93102,0.37465 -6.21368,9.96943 c -3.41752,5.48319 -6.72705,10.28672 -7.35453,10.67452 -0.62748,0.3878 -2.56767,-1.56703 -4.31155,-4.34407 z M 211.29169,866.0194 c 2.32017,-1.17195 5.62166,-3.41064 7.33665,-4.97485 l 3.11815,-2.84404 2.88185,3.49552 c 1.58501,1.92254 4.1924,4.17254 5.79419,5 3.57765,1.84817 15.03073,1.96705 19.66752,0.20414 3.18401,-1.21056 3.42013,-1.89482 3.42013,-9.91144 0,-8.38416 -0.0959,-8.62221 -3.63577,-9.033 -6.15595,-0.71433 -6.98954,-4.50578 -7.01124,-31.8896 -0.02,-25.28377 -0.80795,-30.58037 -5.56623,-37.41785 -7.6916,-11.05257 -36.08574,-14.79205 -52.64642,-6.93349 -5.17195,2.45425 -15.16706,11.24332 -15.10147,13.27927 0.0336,1.04225 14.66532,12.47998 17.41469,13.61318 0.54275,0.2237 1.36871,-0.7965 1.83547,-2.26713 2.4416,-7.69281 18.70711,-10.88223 25.53698,-5.00741 3.0374,2.61265 3.73752,4.46112 4.22092,11.144 l 0.57952,8.01179 -12.47989,0.73351 c -15.57371,0.91535 -23.87763,3.79945 -31.17393,10.82729 -11.13815,10.72834 -11.48159,27.01524 -0.81089,38.45479 8.12618,8.71171 25.20061,11.28329 36.61977,5.51532 z m -15.68014,-19.59631 c -8.70338,-8.70338 -0.74627,-18.22258 15.23228,-18.22258 h 8.13276 l -0.39988,7.5309 c -0.33654,6.33846 -0.95633,7.94508 -3.91421,10.14662 -1.93289,1.43864 -6.23728,2.92262 -9.5653,3.29773 -5.22152,0.58855 -6.52175,0.21123 -9.48565,-2.75267 z M 320.17684,808.86717 V 749.53384 H 307.73963 295.3024 l -18.86222,12.11043 -18.86224,12.11043 6.70161,9.93136 6.70162,9.93134 4.2645,-2.95734 c 2.34548,-1.62654 7.64598,-5.84534 11.77889,-9.37511 4.13291,-3.52977 7.8317,-6.41777 8.21951,-6.41777 0.38783,0 0.3636,21 -0.0539,46.66666 l -0.75896,46.66667 h 12.87278 12.87278 v -59.33334 z m 80,0 V 749.53384 H 387.73963 375.3024 l -18.86222,12.11043 -18.86224,12.11043 6.70161,9.93136 6.70161,9.93134 4.26451,-2.95734 c 2.34548,-1.62654 7.64597,-5.84534 11.77889,-9.37511 4.13291,-3.52977 7.84167,-6.41777 8.24169,-6.41777 0.40003,0 0.37422,21 -0.0573,46.66666 l -0.78468,46.66667 h 12.87632 12.87631 v -59.33334 z m 54.66666,24.29668 c 0,-29.59141 0.32342,-35.49839 2.08094,-38.00762 5.151,-7.35405 17.71344,-9.29712 24.17805,-3.73967 l 3.74101,3.21607 0.39363,36.78393 0.39364,36.78395 h 13.40488 13.40489 l -0.57996,-39.66667 c -0.5978,-40.88632 -1.06864,-44.65608 -6.56365,-52.55222 -6.31597,-9.07584 -24.76355,-12.20988 -38.09985,-6.47275 -3.75656,1.61603 -7.86587,4.08275 -9.13182,5.4816 -3.14406,3.47415 -3.87194,3.25477 -7.04509,-2.12329 l -2.7534,-4.66667 h -10.04496 -10.04497 v 50 50 h 13.33333 13.33333 z m 23,-299.29599 c 23.28334,-0.20431 61.38333,-0.20431 84.66667,0 23.28333,0.20431 4.23333,0.37147 -42.33334,0.37147 -46.56666,0 -65.61666,-0.16716 -42.33333,-0.37147 z"
       style="fill:#e6e6e6;fill-opacity:1;stroke-width:1.33333325" />
    <path
       id="path6062"
       d="m 330.8244,920.2342 -6.43469,-10.6321 -67.33333,-0.0423 c -37.11703,-0.0233 -70.89026,-0.62476 -75.25952,-1.34024 -15.7423,-2.57788 -29.92518,-13.15221 -36.5534,-27.25314 -4.97876,-10.59186 -5.74579,-21.72334 -5.21878,-75.7374 0.43592,-44.67841 0.79296,-51.86263 2.8688,-57.72431 4.89833,-13.83169 16.81787,-25.77694 30.80134,-30.86774 6.31775,-2.30004 15.52042,-2.46017 163.36156,-2.84257 163.672,-0.42334 166.7409,-0.33196 177.76641,5.29284 7.1074,3.62593 16.40308,12.45586 20.5346,19.50575 6.43126,10.97412 6.99066,16.8108 6.99066,72.93996 0,56.12916 -0.5594,61.96584 -6.99066,72.93996 -4.13524,7.05625 -13.44606,15.89745 -20.50181,19.4677 -10.25628,5.18976 -16.82326,5.59234 -91.22619,5.59234 H 351.667 l -6.77209,10.66666 c -3.72465,5.86667 -6.96643,10.66667 -7.20395,10.66667 -0.23752,0 -3.32746,-4.78444 -6.86656,-10.63209 z M 207.85742,868.03483 c 2.49276,-0.82399 6.67444,-3.16558 9.29261,-5.20356 4.60872,-3.5874 4.81163,-3.62326 6.37128,-1.12586 4.24476,6.79695 15.78127,9.69462 25.33611,6.36378 l 4.19896,-1.46376 v -9.86958 c 0,-9.40978 -0.14287,-9.86956 -3.06667,-9.86956 -5.87482,0 -6.26666,-1.75233 -6.26666,-28.02466 0,-34.48316 -2.56274,-41.702 -17.20935,-48.47624 -5.12085,-2.36847 -8.63564,-2.83243 -21.45732,-2.83243 -14.48154,0 -15.72729,0.21824 -22.42513,3.92854 -7.11609,3.94198 -15.39734,11.9573 -14.64419,14.1739 0.22146,0.6518 4.57636,4.18834 9.67756,7.85898 l 9.27491,6.67389 2.43041,-3.83857 c 2.98602,-4.71608 9.1362,-7.40971 16.28748,-7.13351 7.59105,0.29319 11.39896,4.88463 11.39896,13.74445 v 6.59232 l -5.66667,0.0107 c -24.44985,0.0435 -41.89262,10.15262 -44.8846,26.01342 -2.5801,13.6774 3.44032,26.1446 15.2065,31.48987 6.13021,2.78489 19.21463,3.27959 26.14581,0.98851 z M 195.3876,845.89895 c -2.99694,-3.31158 -2.99582,-10.02858 0.002,-12.69348 2.82572,-2.51183 11.41339,-4.98824 17.33333,-4.9984 l 4.33332,-0.007 v 7.12668 c 0,9.06436 -2.65491,11.76514 -12.35612,12.56964 -5.67841,0.4709 -7.41656,0.0981 -9.31266,-1.997 z m 125.66878,-37.03266 v -59.33333 h -13.77055 -13.77056 l -18.76822,12.05007 -18.76823,12.05007 6.79017,9.94993 c 3.7346,5.47247 7.42706,9.93539 8.20546,9.9176 1.4171,-0.0324 7.9087,-4.74372 18.02206,-13.07971 l 5.3932,-4.44537 v 46.11204 46.11204 h 13.33333 13.33334 z m 81.2769,16.54789 c 0.003,-22.18333 -0.83004,-46.73773 -0.35198,-57.18773 l 0.1029,-18.69349 -14.48709,0.008 -13.87407,0.008 -18.3184,11.65911 c -10.07512,6.41251 -18.32512,12.15551 -18.33333,12.76221 -0.0265,1.95975 12.60541,19.54991 14.04428,19.55686 0.76589,0.004 6.16589,-3.82171 12,-8.50088 l 10.60745,-8.50759 0.35061,45.84092 0.35062,45.84092 h 12.64938 14.43649 l 0.51675,-40.4866 z m 52.92337,8.29859 c 0.39959,-33.35584 0.31124,-34.60711 3.10728,-38.16157 3.2077,-4.07793 8.71542,-4.96746 13.85354,-4.96746 1.84532,0 5.42297,-0.6342 7.81786,1.50458 l 1.86189,4.21381 2.88703,35.78619 0.72592,36.11219 13.02759,0.86607 13.90278,-0.86607 0.22806,-41.00088 c 0.21694,-39.00175 -0.7769,-42.34381 -3.50715,-47.41702 -3.82997,-7.11666 -8.98937,-10.93115 -15.97735,-13.39664 -11.15121,-3.93437 -22.31134,-2.43167 -33.20488,4.89913 l -5.24859,3.75696 -2.83036,-3.15029 -3.26382,-3.69214 h -10.45671 -10.4567 v 50 50 h 13.33333 l 13.78713,8.8e-4 z"
       style="fill:#35c43b;fill-opacity:1;stroke-width:1.33333325" />
    <path
       id="path6060"
       d="m 331.77019,920.0911 -6.40663,-10.4656 -13.2546,-0.37916 -13.2546,-0.37917 37.66123,-49.07356 37.66122,-49.07356 0.35933,28.74023 0.35934,28.74023 h 13.30733 13.30733 v -46.51323 -46.51322 l 23.66667,-30.817 23.66666,-30.817 21.33334,0.0237 c 11.73333,0.0133 25.15454,0.57614 29.82492,1.25132 21.88769,3.1643 38.4009,19.71389 41.57558,41.6672 0.66689,4.61169 1.21255,29.38489 1.21255,55.05156 0,25.66666 -0.54566,50.43986 -1.21255,55.05156 -3.17468,21.9533 -19.68789,38.5029 -41.57558,41.66719 -4.67038,0.67519 -39.99496,1.23968 -78.49908,1.25443 l -70.00749,0.0268 -6.65917,10.51142 -6.65918,10.51144 z m 123.07328,-85.35154 c 0,-36.62354 0.34604,-38.47232 8.05311,-43.025 4.91323,-2.9023 13.55124,-2.8017 17.25944,0.201 4.37039,3.53894 5.23165,10.90328 5.29605,45.28495 l 0.0581,31 h 13.33333 13.33334 l -0.008,-39 c -0.008,-40.36177 -0.55554,-45.48399 -5.6777,-53.08475 -4.56112,-6.76825 -10.50528,-9.57573 -21.8103,-10.30125 -11.08347,-0.71129 -19.04902,1.5448 -25.94687,7.34896 -2.202,1.85287 -4.15991,3.1442 -4.35088,2.86961 -0.19099,-0.27458 -1.37948,-2.14924 -2.64109,-4.1659 -2.19076,-3.50186 -2.77194,-3.66667 -12.92979,-3.66667 h -10.63537 v 50 50 h 13.33333 13.33333 z"
       style="fill:#4d56d9;fill-opacity:1;stroke-width:1.33333325" />
  </g>
</svg>
