<?xml version="1.0" encoding="UTF-8" standalone="no"?>
<svg
   xmlns:dc="http://purl.org/dc/elements/1.1/"
   xmlns:cc="http://creativecommons.org/ns#"
   xmlns:rdf="http://www.w3.org/1999/02/22-rdf-syntax-ns#"
   xmlns:svg="http://www.w3.org/2000/svg"
   xmlns="http://www.w3.org/2000/svg"
   id="svg8"
   version="1.1"
   viewBox="0 0 86.22342 39.175481"
   height="19.58774mm"
   width="43.11171mm">
  <defs
     id="defs2" />
  <metadata
     id="metadata5">
    <rdf:RDF>
      <cc:Work
         rdf:about="">
        <dc:format>image/svg+xml</dc:format>
        <dc:type
           rdf:resource="http://purl.org/dc/dcmitype/StillImage" />
        <dc:title></dc:title>
      </cc:Work>
    </rdf:RDF>
  </metadata>
  <g
     transform="translate(-45.573914,-62.034939)"
     id="layer1">
    <path
       id="path4587"
       d="m 53.686476,89.933542 c -2.233616,-0.377416 -4.41036,-1.92609 -5.370563,-3.820966 -1.02235,-2.017507 -1.079225,-5.087847 -0.133863,-7.22504 0.514968,-1.164176 1.905677,-2.548807 3.238184,-3.224041 1.650187,-0.836212 3.429085,-0.981208 10.92118,-0.890167 6.560856,0.07972 6.957588,0.107196 8.11051,0.561702 1.426432,0.562327 2.90547,1.944807 3.647732,3.409594 0.729027,1.438667 0.945659,3.164622 0.947475,7.548768 l 0.0016,3.855076 h -4.541596 -4.541599 l -0.0013,-4.171931 c -6.33e-4,-2.294561 -0.0967,-4.515812 -0.21344,-4.93611 -0.583192,-2.099525 -2.184944,-3.239471 -4.538213,-3.229782 -2.458318,0.01015 -4.005245,1.136999 -4.553143,3.316785 -0.404543,1.60945 0.01603,3.493245 1.040396,4.660348 0.64082,0.730092 1.944371,1.225918 3.540353,1.346621 l 1.556672,0.117729 v 1.448171 1.448169 l -4.066314,-0.0249 c -2.23647,-0.0138 -4.506368,-0.0992 -5.044209,-0.190098 z M 77.583593,76.312439 v -1.561997 h 4.482657 l 4.600538,0.01481 v 1.547264 13.836032 H 82.12519 77.583593 Z m 11.829279,0 0.05894,-1.53241 h 4.541596 4.541589 v 0 l -0.05894,15.368439 h -4.541598 -4.541597 z m 11.875748,9.136006 c 0.11312,-5.759628 0.31011,-6.465989 2.38118,-8.538768 2.05393,-2.055619 2.17008,-2.076348 11.61961,-2.07373 7.66921,0.0022 7.83851,0.01116 9.02799,0.489565 1.4266,0.573597 2.91073,1.964704 3.64774,3.419112 0.72902,1.438667 0.94565,3.164622 0.94747,7.548768 l 0.002,3.855076 h -4.54159 -4.5416 l -10e-4,-4.171931 c -6.3e-4,-2.294561 -0.0967,-4.515812 -0.21344,-4.93611 -0.58319,-2.099525 -2.18494,-3.239471 -4.53821,-3.229782 -2.38031,0.0097 -3.96349,1.112857 -4.51968,3.149012 -0.13039,0.477299 -0.2313,2.66022 -0.23197,5.01688 l -10e-4,4.171931 h -4.56451 -4.56452 z"
       style="fill:#dd0031;fill-opacity:1;stroke-width:0.21123709" />
  </g>
</svg>
